<svg xmlns="http://www.w3.org/2000/svg" viewBox="0 0 54.9 65.33"><g id="Layer_3" data-name="Layer 3"><polygon points="46.66 52.38 17.74 52.38 17.6 7.19 46.66 7.19 46.66 52.38" fill="#fff"/></g><g id="Layer_2" data-name="Layer 2"><circle cx="24.41" cy="35.91" r="2.78" fill="#ffa71a"/><circle cx="30.32" cy="36" r="2.78" fill="#ffa71a"/><rect x="46.73" y="2.88" width="4.52" height="54.01" fill="#f9ff7d"/><rect x="30.14" y="35.41" width="4.52" height="37.7" transform="translate(86.66 21.86) rotate(90)" fill="#f9ff7d"/><rect x="7.74" y="3.36" width="5.8" height="53.49" transform="translate(21.29 60.21) rotate(180)" fill="#f9ff7d"/><rect x="13.42" y="3.36" width="4.15" height="53.15" transform="translate(30.98 59.88) rotate(180)" fill="#f9ff7d"/><rect x="15.32" y="56.52" width="5.66" height="4.56" transform="translate(36.29 117.59) rotate(180)" fill="#f9ff7d"/><rect x="31.46" y="-11.21" width="3.27" height="33.54" transform="translate(27.53 38.65) rotate(-90)" fill="#f9ff7d"/><rect x="3.92" y="16.06" width="3.82" height="13.78" fill="#f9ff7d"/><rect x="43.08" y="56.88" width="5.91" height="4.19" fill="#f9ff7d"/></g><g id="Layer_1" data-name="Layer 1"><path d="M52.32,19V4a2,2,0,0,0-2-2h-36A2,2,0,0,0,13,2.51,3,3,0,0,0,11.32,2h-2a3,3,0,0,0-3,3v9.35L2.91,15.86a1,1,0,0,0-.59.92V29.22a1,1,0,0,0,.59.92l3.41,1.51V37h2V5a1,1,0,0,1,1-1h2a1,1,0,0,1,1,1V55a1,1,0,0,1-1,1h-2a1,1,0,0,1-1-1V33.13h-2V55a3,3,0,0,0,3,3h2A3,3,0,0,0,13,57.49a2,2,0,0,0,1.33.51v3a1,1,0,0,0,1,1h6a1,1,0,0,0,1-1V58h20v3a1,1,0,0,0,1,1h6a1,1,0,0,0,1-1V58a2,2,0,0,0,2-2V18.1h-2V56h-36V4h36V19Zm-48,9.57V17.43l2-.89V29.46ZM48.32,58v2h-4V58Zm-28,0v2h-4V58Z"/><path d="M19.32,6a3,3,0,0,0-3,3V51a3,3,0,0,0,3,3h26a3,3,0,0,0,3-3V9a3,3,0,0,0-3-3Zm22.1,23.45.9,1.79V38h-4V31.24l.89-1.79a1,1,0,0,0,.11-.45V26h2v3a1,1,0,0,0,.1.45Zm2.79,1.1-.89-1.79V25a1,1,0,0,0-1-1h-4a1,1,0,0,0-1,1v3.76l-.9,1.79a1,1,0,0,0-.1.45v7H33.76a4,4,0,0,0,.56-2,4,4,0,0,0-7-2.62A4,4,0,0,0,20.87,38H18.32V22h28V38h-2V31a1,1,0,0,0-.11-.45ZM22.32,36a2,2,0,1,1,2,2A2,2,0,0,1,22.32,36Zm6,0a2,2,0,1,1,2,2A2,2,0,0,1,28.32,36Zm17,16h-26a1,1,0,0,1-1-1V40h28V51A1,1,0,0,1,45.32,52Zm1-43V20h-28V9a1,1,0,0,1,1-1h26A1,1,0,0,1,46.32,9Z"/><rect x="29.32" y="11" width="6" height="2"/><path d="M38.32,42h-12a1,1,0,0,0-1,1v4a1,1,0,0,0,1,1h12a1,1,0,0,0,1-1V43A1,1,0,0,0,38.32,42Zm-1,4h-10V44h10Z"/></g></svg>